<mxfile host="app.diagrams.net" modified="2024-02-15T09:06:05.714Z" agent="Mozilla/5.0 (Windows NT 10.0; Win64; x64) AppleWebKit/537.36 (KHTML, like Gecko) Chrome/121.0.0.0 Safari/537.36" version="23.1.4" etag="txP5I3v2ErIwFD3CA_VY" type="github">
  <diagram name="Page-1" id="rS2mC8dMNPK5S12P6Z0F">
    <mxGraphModel>
      <root>
        <mxCell id="0" />
        <mxCell id="1" parent="0" />
      </root>
    </mxGraphModel>
  </diagram>
</mxfile>
